<?xml version="1.0" encoding="utf-8"?>
<!-- Generator: Adobe Illustrator 20.1.0, SVG Export Plug-In . SVG Version: 6.00 Build 0)  -->
<svg version="1.1" id="Layer_1" xmlns="http://www.w3.org/2000/svg" xmlns:xlink="http://www.w3.org/1999/xlink" x="0px" y="0px"
	 viewBox="0 0 50 50" style="enable-background:new 0 0 50 50;" xml:space="preserve">
<style type="text/css">
	.st0{clip-path:url(#SVGID_2_);fill:#296DB8;}
</style>
<g>
	<defs>
		<rect id="SVGID_1_" y="4.5" width="48.5" height="43.3"/>
	</defs>
	<clipPath id="SVGID_2_">
		<use xlink:href="#SVGID_1_"  style="overflow:visible;"/>
	</clipPath>
	<path class="st0" d="M48.3,44.6c0,1-0.8,1.7-1.8,1.7c-1,0-1.8-0.8-1.8-1.7c0-1,0.8-1.7,1.8-1.7C47.5,42.9,48.3,43.7,48.3,44.6
		 M45.2,44.6c0,0.8,0.6,1.4,1.3,1.4c0.8,0,1.3-0.6,1.3-1.4c0-0.8-0.5-1.4-1.3-1.4S45.2,43.9,45.2,44.6 M46.3,45.5h-0.4v-1.7
		c0.2,0,0.4,0,0.7,0c0.3,0,0.5,0,0.6,0.1c0.1,0.1,0.2,0.2,0.2,0.4c0,0.2-0.1,0.3-0.3,0.4v0c0.2,0.1,0.3,0.2,0.3,0.4
		c0,0.3,0.1,0.4,0.1,0.4h-0.4c0-0.1-0.1-0.2-0.1-0.4c0-0.2-0.1-0.3-0.4-0.3h-0.2C46.3,44.8,46.3,45.5,46.3,45.5z M46.3,44.5h0.2
		c0.2,0,0.4-0.1,0.4-0.2c0-0.2-0.1-0.3-0.4-0.3l-0.2,0L46.3,44.5L46.3,44.5z M35.2,4.5h-22l-13,15.3l4.6-0.3V36l-3.5,0.5
		c0,0-1.7,0.3-1.3,2.1c0.4,1.3,1.7,1.3,1.7,1.3l3.1-0.5v4.4l21.9,4l17.2-3.9l0-24l4.7-0.4C48.5,19.4,35.2,4.5,35.2,4.5z M30.7,22.7
		l4.8-0.5v6.3l-4.8,0.6C30.7,29.2,30.7,22.7,30.7,22.7z M6.4,42.7v-3.5l9.5-1.6c0,0,1.6,0,1.5-1.8c-0.1-1.6-1.9-1.3-1.9-1.3
		l-9.1,1.4V19L16,7.7l10.6,11.9v26.8C26.7,46.3,6.4,42.7,6.4,42.7z M30.7,37.7l0-6.5l4.8-0.6l0,6.3C35.5,36.9,30.7,37.7,30.7,37.7z
		 M41.4,35.8l-4,0.7v-6.2l4-0.6V35.8z M37.4,28.3v-6.2l4-0.4l0,6.1C41.4,27.8,37.4,28.3,37.4,28.3z M20.5,20
		c-1.1-1.3-2.6-2.1-4.3-2.1l-0.3,0c-1.7,0.1-3.1,1-4.1,2.3c-1,1.3-1.6,3.1-1.6,5l0,0.5c0.1,2,0.8,3.8,1.9,5c1.1,1.3,2.6,2.1,4.3,2.1
		l0.3,0c1.7-0.1,3.1-1,4.1-2.3c1-1.3,1.6-3.1,1.6-5l0-0.5C22.3,23.1,21.6,21.3,20.5,20 M19.8,29.8c-0.8,1.1-2,1.8-3.2,1.8h-0.2
		c-1.3,0-2.5-0.6-3.4-1.7c-0.9-1.1-1.6-2.6-1.6-4.3l0-0.4c0-1.7,0.5-3.2,1.4-4.3c0.8-1.1,2-1.8,3.2-1.8h0.2c1.3,0,2.5,0.6,3.4,1.7
		c0.9,1.1,1.6,2.6,1.6,4.3l0,0.4C21.2,27.2,20.7,28.7,19.8,29.8 M14.2,25.5c-0.1-2.1,0.6-4,1.6-4.7c-1.8,0.1-3.2,2.3-3,4.8
		c0.1,2.6,1.7,4.6,3.5,4.5v0C15.2,29.5,14.3,27.7,14.2,25.5"/>
</g>
</svg>
