<?xml version="1.0" encoding="utf-8"?>
<!-- Generator: Adobe Illustrator 20.1.0, SVG Export Plug-In . SVG Version: 6.00 Build 0)  -->
<svg version="1.1" id="Layer_2" xmlns="http://www.w3.org/2000/svg" xmlns:xlink="http://www.w3.org/1999/xlink" x="0px" y="0px"
	 viewBox="0 0 198 50" style="enable-background:new 0 0 198 50;" xml:space="preserve">
<style type="text/css">
	.st0{fill:#296DB8;}
</style>
<g>
	<g>
		<g id="HomeAway_xAE__3_">
			<path id="H_3_" class="st0" d="M3.6,10.7v11.6h13.4V10.7h3.6v27.6h-3.6v-13H3.6v13H0V10.7H3.6z"/>
			<path id="o_3_" class="st0" d="M43.6,28.2c0,7.3-5.1,10.5-9.9,10.5c-5.4,0-9.5-3.9-9.5-10.2c0-6.6,4.4-10.5,9.8-10.5
				C39.8,18,43.6,22.2,43.6,28.2z M27.9,28.4c0,4.4,2.5,7.6,6,7.6c3.4,0,6-3.2,6-7.7c0-3.4-1.7-7.6-5.9-7.6
				C29.7,20.7,27.9,24.7,27.9,28.4z"/>
			<path id="m_3_" class="st0" d="M47.2,23.9c0-2,0-3.7-0.2-5.4h3.2l0.2,3.2h0.1c1.1-1.9,3-3.6,6.2-3.6c2.7,0,4.8,1.6,5.6,4h0.1
				c0.6-1.1,1.4-2,2.2-2.6c1.2-0.9,2.5-1.4,4.4-1.4c2.6,0,6.5,1.7,6.5,8.6v11.7H72V27.1c0-3.8-1.4-6.1-4.3-6.1
				c-2.1,0-3.7,1.5-4.3,3.3c-0.2,0.5-0.3,1.1-0.3,1.8v12.3h-3.5V26.4c0-3.2-1.4-5.5-4.2-5.5c-2.2,0-3.9,1.8-4.5,3.6
				c-0.2,0.5-0.3,1.1-0.3,1.8v12h-3.5L47.2,23.9L47.2,23.9z"/>
			<path id="e_3_" class="st0" d="M82.5,28.9c0.1,5,3.3,7,6.9,7c2.6,0,4.2-0.5,5.6-1l0.6,2.6c-1.3,0.6-3.5,1.3-6.7,1.3
				c-6.2,0-9.9-4.1-9.9-10.2s3.6-10.9,9.5-10.9c6.6,0,8.4,5.8,8.4,9.5c0,0.8-0.1,1.3-0.1,1.7L82.5,28.9L82.5,28.9z M93.3,26.2
				c0.1-2.3-0.9-6-5.1-6c-3.7,0-5.3,3.4-5.6,6H93.3z"/>
			<path id="A_3_" class="st0" d="M105.2,29.5l-2.9,8.9h-3.8l9.6-28.2h4.4l9.6,28.2h-3.9l-3-8.9H105.2z M114.4,26.6l-2.8-8.1
				c-0.6-1.8-1-3.5-1.5-5.1h-0.1c-0.4,1.7-0.9,3.4-1.4,5.1l-2.8,8.2H114.4L114.4,26.6z"/>
			<path id="w_3_" class="st0" d="M125.7,18.1l2.7,10.3c0.6,2.3,1.1,4.3,1.5,6.5h0.1c0.5-2.1,1.1-4.2,1.8-6.5l3.3-10.3h3.1l3.1,10.1
				c0.8,2.4,1.3,4.6,1.8,6.6h0.1c0.3-2.1,0.9-4.2,1.6-6.6l2.9-10.2h3.6l-6.5,20.2h-3.4l-3.1-9.7c-0.7-2.2-1.3-4.3-1.8-6.6h-0.1
				c-0.5,2.4-1.1,4.5-1.9,6.7l-3.3,9.6H128l-6.1-20.2H125.7L125.7,18.1z"/>
			<path id="a_3_" class="st0" d="M168.1,33.5c0,1.8,0.1,3.5,0.3,4.8h-3.3l-0.3-2.5h-0.1c-1.1,1.6-3.3,3-6.2,3
				c-4.1,0-6.2-2.9-6.2-5.8c0-4.9,4.4-7.6,12.2-7.5V25c0-1.7-0.5-4.7-4.6-4.7c-1.9,0-3.9,0.6-5.3,1.5l-0.8-2.4
				c1.7-1.1,4.1-1.8,6.6-1.8c6.2,0,7.7,4.2,7.7,8.3L168.1,33.5L168.1,33.5z M164.5,28c-4-0.1-8.6,0.6-8.6,4.6c0,2.4,1.6,3.5,3.5,3.5
				c2.6,0,4.3-1.7,4.9-3.4c0.1-0.4,0.2-0.8,0.2-1.2L164.5,28L164.5,28z"/>
			<path id="y_3_" class="st0" d="M174.1,18.1l4.4,12c0.5,1.3,1,2.9,1.3,4.1h0.1c0.4-1.2,0.8-2.8,1.3-4.2l4-11.9h3.9l-5.5,14.4
				c-2.3,6.1-4.2,9.7-6.9,12.1c-1.8,1.6-3.6,2.2-4.5,2.4l-0.9-3.1c0.9-0.3,2.1-0.9,3.2-1.8c1-0.8,2.2-2.2,3.1-4.1
				c0.2-0.4,0.3-0.7,0.3-0.9s-0.1-0.5-0.3-1l-7.5-18.1L174.1,18.1L174.1,18.1L174.1,18.1z"/>
			<g id="_xAE__3_">
				<path class="st0" d="M197.6,20.3c0,1.5-1.2,2.7-2.7,2.7s-2.7-1.2-2.7-2.7c0-1.5,1.2-2.6,2.8-2.6
					C196.4,17.6,197.6,18.8,197.6,20.3z M192.9,20.3c0,1.2,0.9,2.1,2.1,2.1c1.1,0,2-0.9,2-2.1c0-1.2-0.9-2.1-2.1-2.1
					C193.8,18.1,192.9,19.1,192.9,20.3z M194.5,21.6h-0.6V19c0.2,0,0.6-0.1,1-0.1c0.5,0,0.7,0.1,0.9,0.2c0.2,0.1,0.3,0.3,0.3,0.6
					c0,0.3-0.2,0.5-0.5,0.6v0c0.3,0.1,0.4,0.3,0.5,0.6c0.1,0.4,0.1,0.5,0.2,0.6h-0.6c-0.1-0.1-0.1-0.3-0.2-0.6
					c-0.1-0.3-0.2-0.4-0.6-0.4h-0.3L194.5,21.6L194.5,21.6z M194.5,20.1h0.3c0.3,0,0.6-0.1,0.6-0.4c0-0.2-0.2-0.4-0.6-0.4
					c-0.2,0-0.3,0-0.3,0L194.5,20.1L194.5,20.1z"/>
			</g>
		</g>
	</g>
</g>
</svg>
